<svg xmlns:dc="http://purl.org/dc/elements/1.1/" xmlns:cc="http://creativecommons.org/ns#" xmlns:rdf="http://www.w3.org/1999/02/22-rdf-syntax-ns#" xmlns:svg="http://www.w3.org/2000/svg" xmlns="http://www.w3.org/2000/svg" viewBox="0 0 704 704" fill="none"><metadata><rdf:RDF><cc:Work><dc:format>image/svg+xml</dc:format><dc:type rdf:resource="http://purl.org/dc/dcmitype/StillImage"/><dc:title>Open Peeps</dc:title><dc:creator><cc:Agent><dc:title>Pablo Stanley</dc:title></cc:Agent></dc:creator><dc:source>https://www.openpeeps.com/</dc:source><cc:license rdf:resource="https://creativecommons.org/publicdomain/zero/1.0/"/></cc:Work><cc:License rdf:about="https://creativecommons.org/publicdomain/zero/1.0/"><cc:permits rdf:resource="https://creativecommons.org/ns#Reproduction"/><cc:permits rdf:resource="https://creativecommons.org/ns#Distribution"/><cc:permits rdf:resource="https://creativecommons.org/ns#DerivativeWorks"/></cc:License></rdf:RDF></metadata><mask id="avatarsRadiusMask"><rect width="704" height="704" rx="0" ry="0" x="0" y="0" fill="#fff"/></mask><g mask="url(#avatarsRadiusMask)"><g fill-rule="evenodd" clip-rule="evenodd"><path d="M705.281 1074.02a2351.117 2351.117 0 0 1-11.084-68.46c-1.594-10.86-3.149-21.73-4.547-32.618-.979-7.628-2.47-16.351 2.72-22 7.303-7.952 13.937-14.758 14.831-26.149.841-10.717-2.783-22.4-5.049-32.803-4.752-21.816-10.668-43.362-17.205-64.704-6.641-21.683-13.923-43.162-21.31-64.6-6.906-20.044-13.545-40.269-22.54-59.5-17.071-36.495-45.951-63.522-81.643-81.568-8.877-4.488-26.983-20.51-36.257-24.097-8.526-3.298-8.495 6.333-16.886 2.705-6.708-2.9-12.954-6.767-16.71-13.244-4.078-7.033-14.305-16.869-15.862-25.055-3.299-17.351.275-32.12-12.109-45.179-10.994-11.597-25.771-19.542-41.061-23.807-33.636-9.381-78.494-2.822-98.788 28.433-9.693 14.926-13.08 32.968-26.159 45.149-11.421 10.636-8.865 17.908-23.657 23.39-.838.311-23.546-4.56-24.384-4.248-16.182-3.463-31.648 6.23-46.494 11.856-22.133 8.384-43.205 19.298-63.002 32.269-39.92 26.155-74.11 60.118-102.296 98.551-28.42 38.75-50.471 82.182-66.172 127.576a492.842 492.842 0 0 0-10.26 33.455c-1.69 6.307-3.497 12.849-1.438 19.305 1.684 5.283 5.43 9.216 9.829 12.385 5.963 4.297 17.924 7.09 17.69 15.732-.177 6.57-2.406 13.485-3.494 19.978-1.295 7.732-2.36 15.51-3.423 23.276-4.84 35.352-8.607 70.902-10.273 106.552-1.64 35.1-3.001 70.92-.566 106.01.16 2.31.85 4.44 1.964 6.23-1.04.4-1.12 2.34.174 2.61.906.19 1.81.39 2.716.58 1.882 1.42 4.229 2.29 6.93 2.38 1.83.06 3.66.14 5.49.23 19.3 4.04 38.599 7.85 58.152 10.74 23.768 3.5 47.606 6.36 71.518 8.69 49.135 4.78 97.883 3.19 147.083.62 49.124-2.58 98.219-3.18 147.394-1.9 49.218 1.28 98.418 3.42 147.647 4.3 54.999.98 109.914-.52 164.754-4.9 7.519-.59 12.171-6.58 10.688-14.04-8.885-44.75-18.954-89.19-26.911-134.13Z" fill="rgba(174, 93, 41, 1)"/><path d="m201.087 597.521 1.074-.414c14.518-5.671 29.628-14.822 45.421-11.442.558-.208 10.834 1.887 17.872 3.215l-6.68 6.973-11.79 2.268c40.673 67.128 88.778 100.692 144.314 100.692 55.537 0 97.678-33.564 126.425-100.692l3.923-1.085c.484.112 1 .271 1.552.485 9.274 3.587 27.379 19.608 36.256 24.096 35.692 18.047 64.572 45.073 81.643 81.569 8.695 18.59 15.189 38.108 21.85 57.494l.69 2.005c7.387 21.438 14.669 42.918 21.31 64.601 6.253 20.414 11.938 41.015 16.579 61.86l.626 2.844c2.266 10.403 5.89 22.085 5.049 32.803-.318 4.058-1.365 7.534-2.912 10.687l-80.446 28.947 38.326 261.393c-35.107 1.51-70.246 1.9-105.419 1.27-49.229-.88-98.429-3.02-147.647-4.3-47.685-1.24-95.294-.71-142.928 1.67l-12.097.62c-46.613 2.33-92.858 3.52-139.452-1.01l-3.175-.31v-38.24l16.367-212.911-82.945-15.613-81.422-39.546c-2.46-2.459-4.434-5.329-5.532-8.773-1.907-5.98-.498-12.033 1.064-17.905l.375-1.4a492.842 492.842 0 0 1 10.26-33.455c15.7-45.394 37.751-88.827 66.171-127.576 28.187-38.433 62.377-72.396 102.296-98.552 19.797-12.97 40.869-23.884 63.002-32.268Z" fill="rgba(143, 167, 223, 1)"/><path d="M232.235 584.564c5.086-.221 10.272.602 15.346 1.101.442.043.61.725.112.829-9.08 1.897-18.062 4.492-26.98 7.128l-3.819 1.13c-10.057 2.975-19.819 6.044-29.555 10.012-19.404 7.908-37.833 18.582-54.794 30.845C67.233 682.83 19.963 754.324-9.867 828.345a525.982 525.982 0 0 0-20.525 61.653 554.65 554.65 0 0 0-3.83 15.347c-.354 1.505-1.897 5.359-1.05 6.899.747 1.361 3.655 2.202 5.006 2.91l4.561 2.365c8.897 4.585 23.717 12.123 25.203 12.857l2.318 1.141c37.91 18.585 78.418 34.345 121.079 35.436l.334-3.643c1.902-20.141 4.398-40.389 9.846-59.911.293-1.049 1.628-.695 1.75.237 3.035 23.111 2.065 46.402 1.006 69.62-1.875 41.124-4.365 82.224-6.578 123.324-1.108 20.57-2.54 41.11-3.833 61.67-1.295 20.59-1.714 41.68-4.671 62.1-.659 4.55-5.991 7.03-10.029 6.55-4.468-.53-7.905-4.47-7.926-8.98-.054-11.9 1.441-23.94 2.272-35.8.789-11.28 1.636-22.55 2.504-33.82 3.172-41.13 6.821-82.21 10.196-123.33 1.196-14.58 2.488-29.147 3.818-43.715-45.193-1.457-87.414-18.196-127.692-37.754-.583 13.237-1.99 26.45-3.354 39.632-3.805 36.787-7.16 73.557-9.67 110.457-1.269 18.64-2.192 37.3-2.996 55.96a1708.912 1708.912 0 0 0-1.187 36.7l-.137 7.01c-.113 4.44-.564 8.55-4.3 11.78-3.796 3.29-8.922 3.46-12.678 0-5.028-4.63-4.139-10.93-3.99-17.15a1718.048 1718.048 0 0 1 1.775-47.18c1.886-36.64 5.655-73.13 10.58-109.47l1.922-14.03c3.59-26.08 7.532-52.754 15.558-77.877a1428.758 1428.758 0 0 1-9.345-4.691c-5.506-2.788-11.199-5.404-16.55-8.481-4.247-2.441-7.909-5.789-9.09-10.73-1.319-5.505.697-11.526 2.036-16.896l.116-.472a502.049 502.049 0 0 1 4.22-16.153c6.05-21.739 13.53-43.054 22.285-63.849 17.53-41.632 40.157-81.183 67.796-116.944 24.88-32.19 54.269-61.382 88.715-83.276 16.84-10.704 34.786-19.493 53.765-25.707 8.871-2.904 18.523-5.43 27.811-6.47 5.01-.56 10.027-.881 15.061-1.1Zm90.114-65.97c6.044-6.49 18.052.226 15.15 8.82-6.826 20.219-17.696 38.662-34.66 51.948-15.946 12.49-34.961 20.601-55.439 18.87a1.217 1.217 0 0 1-.416-.111l1.765 2.394c13.854 18.741 28.47 37.223 46.087 52.541 35.893 31.211 84.763 48.045 131.953 36.07 37.128-9.421 69.838-38.78 79.458-76.196-1.379.618-3.018.829-4.817.438-7.697-1.671-15.317-9.766-20.281-15.57-5.37-6.279-9.564-13.059-12.638-20.723-5.626-14.026-7.43-32.085.252-45.672.948-1.675 3.134-.736 3.32.899l.292 2.552c1.481 12.734 3.326 25.051 9.33 36.659 2.938 5.68 6.46 11.224 10.747 15.981 2.294 2.545 4.781 4.977 7.466 7.111 2.616 2.079 5.783 3.583 8.128 5.968l.43.458.012-.082c.593-5.041 4.128-7.262 7.587-7.123 3.347.135 7.279 1.608 8.802 2.314l.144.068c23.352 11.21 44.859 25.821 65.099 42.031 41.856 33.524 73.217 77.349 88.412 128.957 7.458 25.329 11.737 51.428 16.254 77.405l2.782 15.917c4.216 23.981 8.926 48.435 18.444 70.743 2.462 5.771.564 11.183-5.473 13.452-7.538 2.834-15.104 5.578-22.682 8.288 3.721 15.963 5.99 32.479 8.778 48.519 5.926 34.1 13.187 67.98 19.413 102.04 3.183 17.41 6.055 34.88 9.235 52.29 1.531 8.39 3.129 16.76 4.683 25.14.837 4.52 1.596 9.06 2.395 13.58l.139.76c.458 2.38 1.033 4.85.376 7.24-.749 2.73-2.876 4.65-4.775 6.61-1.563 1.61-3.822 1.62-5.737.74l-.63-.29c-3.42-1.6-6.1-3.2-7.313-7.06-.768-2.44-1.045-5.19-1.547-7.71-.963-4.82-1.876-9.66-2.738-14.5a3535.65 3535.65 0 0 1-5.052-29.1l-1.536-9.09c-5.27-31.33-10.275-62.85-12.805-94.51-1.123-14.05-2.312-28.08-3.513-42.12l-.901-10.524c-1.14-13.325-2.533-26.987-2.73-40.492l-4.532 1.609-22.11 7.816c-5.482 1.937-12.462 5.907-18.362 5.185-2.888-.354-5.09-1.263-6.79-2.915 2.036 28.733 4.792 57.421 8.465 85.951 3.342 25.97 7.047 51.9 11.423 77.71 2.167 12.78 4.394 25.55 6.813 38.29 1.209 6.37 2.457 12.73 3.743 19.08.641 3.17 1.404 6.35 1.904 9.54.572 3.66-.436 5.91-2.481 8.93-1.679 2.47-5.038 3.74-7.761 2.03-3.606-2.26-5.487-4.22-6.548-8.34-.964-3.75-1.55-7.65-2.296-11.44-1.377-7-2.708-14.01-3.993-21.02-2.687-14.68-5.164-29.38-7.376-44.14-7.795-51.97-12.741-104.37-15.239-156.859-1.233-25.897-1.614-51.817-1.395-77.741.112-13.288.546-26.614 1.486-39.869.952-13.417 2.932-26.566 4.7-39.854.062-.468.722-.495.75 0 .837 14.898 2.149 29.779 2.792 44.716.614 14.253.883 28.528 1.371 42.786.641 18.742 1.53 37.495 2.707 56.235 2.131-2.331 5.343-3.675 8.557-3.15 4.656-.977 9.668-3.42 14.107-4.903l16.734-5.59c8.797-2.938 17.594-5.856 26.422-8.686-7.893-26.553-13.3-53.502-17.917-80.844l-2.059-12.297c-4.075-24.204-8.47-48.419-15.852-71.858-7.761-24.642-19.375-47.552-34.782-68.299-15.187-20.447-33.664-38.451-52.688-55.291-16.287-14.416-33.71-27.432-50.322-41.452.174.929.211 1.952.058 3.076-3.532 25.85-17.017 49.923-35.81 67.828-37.755 35.971-93.642 43.434-141.964 26.566-46.743-16.316-88.07-54.958-102.671-102.775-.25-.818.846-1.143 1.286-.542.81 1.11 1.624 2.22 2.439 3.33-.055-.441.174-.921.718-1.131 17.036-6.578 33.765-15.907 46.535-29.104 6.224-6.433 11.656-13.721 15.944-21.581 2.054-3.765 3.899-7.664 5.371-11.693l.374-1.042c1.784-5.047 3.275-10.193 6.999-14.192Z" fill="#000"/></g><g transform="matrix(.99789 0 0 1 156 62)"><g fill-rule="evenodd" clip-rule="evenodd"><path d="M403.332 205.382c18.127-11.626 42.861-41.291 28.804-63.786-5.709-8.797-13.494-12.104-22.04-12.369-2.037-2.556-5.422-3.305-8.581-3.323l.018-.135c-11.548.212-22.897 4.257-32.185 11.011-5.988-5.261-13.425-8.253-20.629-11.488 3.021-15.195 7.631-30.017 12.866-44.582 2.825-8.387-6.124-17.222-14.562-14.688 2.076-9.093-2.694-19.653-13.084-19.536-5.555 0-11.841 2.979-17.213 4.32-3.979.995-7.898 2.015-11.738 3.312-.018-.105-.028-.21-.039-.316 10.064-7.045 9.713-23.267-5.076-21.694-6.309.556-12.723 4.85-18.557 7.473-9.617.578-18.853 3.634-28.201 5.827-25.579 6.346-52.945 12.721-74.018 28.822-36.499 14.066-81.895 35.81-86.417 78.793-64.285-24.872-112.848 54.55-54.55 85.803 11.44 5.333 24.664 8.094 37.18 5.529a1194.605 1194.605 0 0 0-8.429 32.926c-22.263 51.151-40.263 105.208-33.788 161.35.095 10.185 13.175 16.06 20.405 8.452 5.981-7.216 13.238 1.219 11.288 8.186-1.848 7.739 3.601 14.844 11.527 15.131 9.485.497 17.02-5.864 23.731-11.739-.129.127.177-.066.623-.367 16.562 39.063 32.08 8.69 52.493 26.266 4.77 4.406 8.117 9.626 14.228 12.492 14.332 7.261 25.648-5.682 39.338-7.176 12.655-.932 25.168 3.449 37.303 6.397 14.171 3.441 28.459 5.243 43.016 3.629 18.613-2.066 55.749-10.476 66.74-17.401 13.466 9.038 27.322-1.682 34.724-14.025 5.177 4.984 14.972 5.748 19.132-1.938 4.138-8.571 11.872-21.671 20.766-19.73.794.243 1.259.395 1.744.747 8.313 7.067 19.045 1.702 20.261-8.569 7.88-66.547-8.194-133.305-29.567-195.931-4.666-13.096-8.537-26.709-17.513-37.673Z" fill="rgba(174, 93, 41, 1)"/><path d="M395.984 203.542c-.336-.922 1.076-1.452 1.542-.65 15.275 26.258 27.485 54.15 37.928 82.642 9.243 25.22 17.44 50.927 23.281 77.161l.397 1.806c5.494 25.316 8.202 52.097.997 77.354l-.348 1.201c-1.659 5.618-3.851 11.324-8.976 14.66-4.304 2.803-9.174 3.153-14.13 2.374-4.176-.657-8.154-2.477-12.339-2.981-3.155-.379-3.979 1.135-4.898 3.685l-.764 2.158c-3.28 9.147-7.284 17.66-17.982 19.587-5.761 1.039-12.02-.039-17.011-3.067-.058.194-.116.387-.164.573l-.236.901c-1.044 3.911-2.388 7.887-5.154 10.927-3.864 4.242-9.406 5.746-14.991 4.62-2.538-.511-4.922-1.664-7.331-2.625-.589 3.548-4.664 6.439-8.392 5.565-2.017-.472-3.572-1.39-4.73-2.572-5.759 4.443-13.527 6.716-20.255 8.438-9.743 2.493-20.111 3.517-30.158 3.217-10.198-.305-20.573-2.268-30.165-5.723l-1.499-.546c-8.275-3.053-16.986-6.916-23.69-12.624-1.332-.655-.553-3.074 1.035-2.561 9.106 2.944 17.6 6.403 27.157 7.819 9.018 1.336 18.075 1.557 27.162 1.007 9.214-.557 18.154-2.437 26.947-5.217 7.652-2.419 15.189-6.787 23.315-7.358.424-.587.884-1.154 1.415-1.671 7.029-6.827 14.15-3.412 22.06-.926.26.083.333.221.334.356l.097-.137.062-.084-.047.057c-.329.372.33-1.008.447-1.29l.012-.03c.909-2.481 1.261-5.147 2.03-7.67 1.834-6.026 5.263-11.539 11.831-12.981 3.242-.713 7.66.373 9.161 3.728 1.236 2.759 3.26 4.157 6.375 4.084 3.253-.075 4.45-1.972 5.583-4.83 1.843-4.65 2.838-9.488 5.866-13.59 3.405-4.614 8.494-7.308 14.244-7.529 4.431-.169 8.771 1.123 12.985 2.319l.388.117c1.924.603 5.362 1.963 6.865.961 2.253-1.503 3.417-10.27 4.069-13.548l.042-.206c1.161-5.587 1.835-11.217 2.109-16.916 1.143-23.836-3.771-47.549-9.206-70.62-11.21-47.578-26.554-93.476-43.27-139.365ZM76.575 261.715c.303-.454.965-.061.728.426-1.099 2.261-1.5 4.636-2.242 6.991-.82 2.607-2.216 5.135-3.25 7.665-1.677 4.097-3.3 8.218-4.937 12.331-3.29 8.27-6.35 16.665-9.25 25.081-5.824 16.907-10.583 34.288-14.064 51.828-3.42 17.233-6.285 35.252-6.176 52.867.05 8.011.924 16.26 4.103 23.699a36.33 36.33 0 0 0 1.704 3.422l.376.663c.053.094.109.187.165.279l.344.55c1.004-1.472 3.897-3.421 5.091-4.453l.166-.148 5.602-5.182c2.44-2.258 5.958-2.801 8.907-1.15 8.964 5.016 8.674 14.332 10.592 23.125l.085.382c.835 3.695 2.28 6.766 6.705 6.041 4.618-.757 7.286-5.451 8.794-9.488l.194-.534c2.665-7.515 12.248-7.215 15.007 0l1.034 2.732c2.14 5.601 5.055 12.358 10.577 14.575 4.643 1.864 9.963-.924 14.186-2.654 2.322-.951 5.032 1.033 5.651 3.209.168.592.281 1.158.369 1.715 4.415-.428 8.641.626 12.983 2.631 5.684 2.622 12.83 8.283 13.898 14.844 1.265 7.757-7.719 11.419-12.355 5.209-2.919-3.911-3.976-8.66-7.466-12.377-2.05-2.182-4.599-4.077-7.274-5.688-2.391 8.451-15.811 10.887-23.81 8.385-7.68-2.4-12.771-8.06-16.573-14.68-7.108 6.949-16.97 10.312-26.855 4.25-5.723-3.51-8.39-9.649-9.425-16.026-.31-1.917-.329-5.068-.879-7.836l-.533.543c-4.828 4.882-10.44 9.473-16.767 8.418-8.293-1.382-12.23-10.612-14.816-17.642-5.378-14.611-4.387-30.859-2.565-46.029 1.996-16.609 5.336-33.061 9.756-49.192 4.311-15.735 9.892-31.005 16.458-45.936 3.347-7.609 7.207-15.031 11.356-22.235 2.084-3.616 4.353-7.133 6.633-10.628 2.353-3.608 5.412-6.45 7.773-9.983ZM26.893 158.898c12.178-11.301 28.46-16.453 44.88-14.129a52.615 52.615 0 0 1 21.673 8.22c6.637 4.385 10.937 9.813 14.909 16.602.277.473-.352.922-.736.567-10.588-9.756-26.621-14.963-40.87-14.413-25.393.979-46.445 23.445-44.867 49.05.777 12.61 7.865 25.346 18.825 31.835 11.615 6.877 24.836 4.594 37.283 1.566 4.495-1.093 6.759 3.958 4.196 7.208-12.624 16.016-38.582 11.828-53.156.812-28.162-21.285-27.2-64.061-2.137-87.318Zm40.891 25.219 1.08-.186c9.086-1.5 28.428-3.23 31.273 7.856 1.45 5.646-4.158 8.686-9.066 8.436-4.047-.206-7.969-1.473-11.964-2.333-1.147 3.965-1.537 8.106-2.096 12.188-.488 3.574-6.237 2.604-6.169-.834.096-4.781 2.317-8.846 5.813-11.813a28.94 28.94 0 0 0-2.464-.288c-9.932-.667-19.745 1.177-29.023 4.583l.981.551c.468.162.268.787-.2.723l-4.615.232c-1.93.452-3.07-1.754-1.854-3.186 7.15-8.421 17.465-13.996 28.304-15.929Zm331.262-59.349c13.872-1.662 27.652 3.45 35.098 15.654 6.909 11.321 7.508 25.654 2.608 37.82-2.785 6.912-6.991 13.111-12.197 18.441-2.574 2.635-5.524 5.354-8.786 7.097-3.799 2.03-6.627 1.853-10.635 1.108-2.581-.48-4.362-3.793-3.537-6.228l.614-1.846c.671-1.983 1.298-3.452 3.134-5.322 1.602-1.631 3.519-2.952 5.28-4.406 3.787-3.129 7.306-6.621 9.938-10.794 4.811-7.631 6.479-16.402 3.763-25.105-2.915-9.346-10.633-15.399-20.304-16.527-5.492-.639-11.063-.061-16.48.897l-3.301.597c-4.607.853-8.365 1.843-11.542 6.068-.268.355-.787.323-.942-.123-1.593-4.589 3.272-8.684 6.717-10.854 5.985-3.765 13.619-5.644 20.572-6.477Zm-60.456-5.587c-.679-.865-.096-2.619 1.23-2.115 15.452 5.867 28.466 20.152 37.374 33.648 2.696 4.083 5.113 8.323 7.296 12.682 3.115-3.786 7.77-6.525 12.123-8.387l.483-.203c5.022-2.086 15.883-5.656 18.959 1.028.989 2.151.593 4.358-1.141 6.025-2.681 2.576-6.963 1.6-10.308 1.57-6.76-.058-12.128 2.078-18.11 4.152a142.488 142.488 0 0 1 3.078 7.213c1.307 3.313 2.271 6.804 3.856 9.999 1.505 3.037 3.869 5.75 5.887 8.443 2.725 3.634-.918 9.776-5.359 9.34-9.192-.904-12.855-8.5-15.386-16.551l-1.38-4.404c-2.068-6.577-4.197-13.023-7.302-19.28-3.994-8.044-8.759-15.902-14.24-23.023-5.375-6.982-11.644-13.215-17.06-20.137Zm-23.926-94.803c5.71-2.128 10.511 5.201 7.668 9.974-2.499 4.192-3.985 8.521-4.567 13.063l25.174-5.998c5.005-1.192 9.74 3.231 8.357 8.358l-3.885 14.405c5.02-1.679 10.271-2.674 15.668-3.025 4.625-.3 7.179 4.474 6.419 8.426-1.587 8.234-3.793 16.317-6.732 24.168l-2.148 5.651c-2.526 6.58-5.473 13.22-11.563 16.927-2.942 1.791-6.757-.525-6.771-3.884-.035-8.133 4.985-15.082 7.775-22.58a142.854 142.854 0 0 0 4.351-13.874c-4.726 1.337-9.172 3.456-13.371 6.25l-.628.424c-4.965 3.404-11.201-2.127-9.966-7.435l.047-.19 4.744-17.788-22.565 5.445c-4.651 1.123-8.222-2.127-8.663-6.599a45.465 45.465 0 0 1 .822-14.067c-14.914 4.697-30.134 8.35-45.401 11.764l-2.29.51c-33.505 7.44-67.74 14.01-98.479 29.933-13.575 7.031-26.022 15.355-37.343 25.65-5.594 5.087-10.711 10.685-15.191 16.778a104.772 104.772 0 0 0-5.867 8.874l-1.442 2.488c-.693 1.201-1.366 2.438-1.779 3.731l-.204.648c-.333 1.094-.694 2.532-.39 3.491.437 1.382 2.94 3.654 4.707 3.032.241-.085.363.229.227.392-1.558 1.876-3.752 2.214-5.984 1.271-3.53-1.493-4.41-4.901-4.02-8.457.967-8.801 7.091-18.506 11.933-25.69 19.939-29.587 52.749-47.29 85.845-58.383 41.15-13.792 84.769-18.5 125.512-33.683Z" fill="#000"/></g></g><g transform="translate(315 248)"><path fill-rule="evenodd" clip-rule="evenodd" d="M155.884 250.932c7.559-1.052 15.687-5.333 22.907-1.854 3.375 1.626 4.977 7.187 2.695 10.278-3.485 4.721-7.083 5.502-12.74 5.956-4.241.34-8.505.365-12.735-.124l-1.076-.132c-7.548-.974-15.393-3.081-21.24-8.153-1.196-1.038-.583-3.28.952-3.604 6.944-1.461 14.208-1.388 21.237-2.367Zm-8.897-17.406c-.003-.061.09-.061.093 0 .183 4.32 1.397 8.325 3.641 12.021.031.053-.05.1-.081.048a25.003 25.003 0 0 1-3.653-12.069Zm23.827-89.159c7.552 4.59 19.058 15.293 10.934 26.673-9.562 10.033-23.329-1.471-30.114-6.674-6.291-4.032-13.359 6.339-7.522 11.047 49.024 36.295 68.919-29.846 30.522-36.443-4.228-.727-5.798 3.977-3.82 5.397ZM209.464 93c1.773 0 3.469.602 5.014 1.716 1.52 1.096 2.896 2.696 4.042 4.69 2.169 3.777 3.525 8.99 3.525 14.754 0 5.765-1.356 10.978-3.525 14.754-1.146 1.995-2.522 3.595-4.042 4.691-1.545 1.113-3.241 1.715-5.014 1.715-1.773 0-3.469-.602-5.014-1.715-1.52-1.096-2.896-2.696-4.042-4.691-2.169-3.776-3.525-8.989-3.525-14.754 0-5.764 1.356-10.977 3.525-14.753 1.146-1.995 2.522-3.595 4.042-4.691 1.545-1.114 3.241-1.716 5.014-1.716Zm-82.117 5.88.667-.127c3.895-.708 5.863-.47 9.255 2.185 2.549 1.995 1.819 5.924 0 8.022-3.169 3.656-6.264 3.008-10.604 3.148l-.305.011c-3.617.147-7.237.25-10.857.305-.99.016-1.981.012-2.971.018.105 9.161-5.177 16.136-12.133 21.439-4.496 3.429-10.183-.527-11.787-4.795-1.327-3.532-1.612-7.875-.924-11.742.255-1.426.786-2.973 1.598-4.292l.229-.354-.037-.506c-.01-.125 0-.246-.004-.371-6.458-.393-12.878-1.04-19.296-1.854l-2.14-.277c-5.477-.725-13.522-.958-17.955-4.521-.14-.114-.09-.363.058-.442 2.437-1.313 4.91-1.238 7.635-1.359l.39-.019c2.965-.153 5.922-.281 8.884-.382l2.965-.093c7.582-.217 15.17-.585 22.746-.988 1.317-.07 2.634-.153 3.953-.234 1.379-.578 2.845-.924 4.293-.988a9.844 9.844 0 0 1 3.439.457 637.76 637.76 0 0 0 8.294-.697l2.763-.256c3.898-.371 7.996-.533 11.844-1.288Zm47.868-68.66c8.333-4.095 18.465-4.195 27.047-.806l.569.23c8.668 3.597 19.112 11.905 16.85 22.254-2.069 9.472-16.926 7.867-17.679-1.086-4.797-6.646-15.554-8.104-22.316-3.878-4.101 2.564-6.916 6.88-8.84 11.235-1.64 3.708-1.949 8.287-4.468 11.517-.082.105-.246.124-.365.096-7.512-1.738-7.686-13.675-6.405-19.465 1.861-8.418 7.834-16.275 15.607-20.097Z" fill="#000"/></g><g transform="translate(279 400)"/><g transform="translate(179 343)"/><g transform="translate(203 303)"/></g></svg>